<svg xmlns="http://www.w3.org/2000/svg" xmlns:xlink="http://www.w3.org/1999/xlink" id="Layer_2_00000127766701764565869780000018328876494724231817_" x="0px" y="0px" viewBox="0 0 923.1 274" style="enable-background:new 0 0 923.1 274;" xml:space="preserve"><style type="text/css">	.st0{fill:#A6A6A6;}	.st1{fill:#FFFFFF;}	.st2{enable-background:new    ;}</style><g id="Layer_1-2">	<g>		<path d="M889,274H34.2C15.4,274,0,258.6,0,239.8V34.3C0,15.5,15.4,0.1,34.2,0.1h854.7c18.8,0,34.2,15.4,34.2,34.2v205.5   C923.1,258.6,907.8,274,889,274"></path>		<path class="st0" d="M889,0H34.2C15.4,0,0,15.4,0,34.2v205.5c0,18.8,15.4,34.2,34.2,34.2h854.7c18.8,0,34.2-15.4,34.2-34.2V34.3   C923.1,15.4,907.8,0,889,0 M888.9,5.5c15.8,0,28.7,12.9,28.7,28.8v205.5c0,15.9-12.9,28.8-28.7,28.8H34.2   c-15.8,0-28.7-12.9-28.7-28.8V34.3c0-15.9,12.9-28.8,28.7-28.8H888.9"></path>		<g>			<path class="st1" d="M354.4,82.7c-0.7,1.4-1.7,2.6-3.1,3.5c-1.3,0.9-2.9,1.6-4.8,2.1s-3.9,0.7-6.2,0.7H321V48.4h18.8    c4.2,0,7.4,1,9.8,2.8s3.6,4.4,3.6,7.7V59c0,1.2-0.1,2.2-0.4,3.1c-0.3,0.9-0.7,1.7-1.1,2.4c-0.5,0.7-1,1.3-1.7,1.9s-1.3,1-2,1.4    c2.3,0.9,4.2,2.1,5.5,3.6c1.4,1.5,2,3.6,2,6.3v0.1C355.4,79.7,355.1,81.4,354.4,82.7L354.4,82.7z M344.4,60.4    c0-1.3-0.5-2.4-1.5-3.1c-1-0.7-2.5-1.1-4.3-1.1h-8.8v8.6h8.2c2,0,3.5-0.3,4.7-1c1.2-0.7,1.7-1.8,1.7-3.3L344.4,60.4L344.4,60.4z     M346.6,76.7c0-1.3-0.5-2.4-1.6-3.2s-2.7-1.2-5-1.2h-10.3v8.9h10.6c2,0,3.5-0.4,4.6-1.1s1.7-1.8,1.7-3.3    C346.6,76.8,346.6,76.6,346.6,76.7z"></path>			<path class="st1" d="M391.9,89l-3.7-9.1h-17.1l-3.7,9.1h-9.1l17.4-40.8h8.2L401.3,89L391.9,89L391.9,89z M379.6,58.9L374.2,72    H385L379.6,58.9L379.6,58.9z"></path>			<path class="st1" d="M434.8,89l-19.6-25.8V89h-8.8V48.4h8.2l19,25v-25h8.8V89L434.8,89L434.8,89z"></path>			<path class="st1" d="M477.2,89l-12.6-17.3l-4.7,4.9V89h-8.9V48.4h8.9v17.7l16.5-17.7h10.8l-16.5,17.2L487.9,89L477.2,89L477.2,89    z"></path>			<path class="st1" d="M548.2,76.8c-1.1,2.5-2.6,4.8-4.5,6.7c-1.9,1.9-4.2,3.4-6.8,4.5c-2.7,1.1-5.5,1.7-8.7,1.7s-6-0.6-8.6-1.7    s-4.9-2.6-6.8-4.5c-1.9-1.9-3.4-4.1-4.5-6.6s-1.6-5.2-1.6-8.1v-0.1c0-2.9,0.5-5.6,1.6-8.1s2.6-4.8,4.5-6.7    c1.9-1.9,4.2-3.4,6.8-4.5s5.5-1.7,8.7-1.7s6,0.5,8.6,1.7s4.9,2.6,6.8,4.5s3.4,4.1,4.5,6.6s1.6,5.2,1.6,8.1v0.1    C549.8,71.6,549.3,74.3,548.2,76.8L548.2,76.8z M540.5,68.7c0-1.7-0.3-3.4-0.9-4.9c-0.6-1.5-1.5-2.9-2.5-4s-2.4-2.1-3.9-2.8    c-1.5-0.7-3.2-1-4.9-1s-3.5,0.3-5,1c-1.5,0.7-2.8,1.6-3.8,2.7s-1.9,2.5-2.5,4c-0.6,1.5-0.9,3.2-0.9,4.9v0.1    c0,1.7,0.3,3.4,0.9,4.9c0.6,1.5,1.5,2.9,2.5,4.1c1.1,1.2,2.4,2.1,3.9,2.8c1.5,0.7,3.1,1,5,1s3.4-0.3,4.9-1    c1.5-0.7,2.8-1.6,3.8-2.7s1.9-2.5,2.5-4s0.9-3.2,0.9-4.9C540.5,68.8,540.5,68.7,540.5,68.7z"></path>			<path class="st1" d="M585.1,89l-19.6-25.8V89h-8.8V48.4h8.2l19,25v-25h8.8V89L585.1,89L585.1,89z"></path>			<path class="st1" d="M651,79.4c-0.8,2.3-2,4.2-3.6,5.7s-3.4,2.7-5.6,3.4s-4.7,1.1-7.4,1.1c-5.4,0-9.7-1.5-12.9-4.5    s-4.7-7.5-4.7-13.5V48.4h8.9v22.9c0,3.3,0.8,5.8,2.3,7.5c1.5,1.7,3.7,2.5,6.4,2.5s4.9-0.8,6.4-2.4c1.5-1.6,2.3-4.1,2.3-7.3V48.4    h8.9v22.9C652.3,74.4,651.9,77.1,651,79.4z"></path>			<path class="st1" d="M688.5,82.3c-0.7,1.6-1.8,2.9-3,3.9c-1.3,1.1-2.9,1.9-4.7,2.4s-3.8,0.8-6,0.8c-3.1,0-6.1-0.5-9.1-1.6    c-3-1.1-5.7-2.7-8.1-4.9l5.3-6.3c1.8,1.5,3.8,2.7,5.7,3.6c2,0.9,4.1,1.3,6.4,1.3c1.8,0,3.3-0.3,4.3-1c1-0.7,1.5-1.6,1.5-2.8v-0.1    c0-0.6-0.1-1.1-0.3-1.5s-0.6-0.9-1.2-1.2s-1.4-0.8-2.5-1.2c-1.1-0.4-2.5-0.8-4.2-1.2c-2-0.5-3.9-1.1-5.6-1.7    c-1.7-0.6-3.1-1.4-4.2-2.3s-2.1-2-2.7-3.4s-1-3-1-5v-0.1c0-1.8,0.3-3.5,1-5c0.7-1.5,1.7-2.8,2.9-3.8c1.2-1.1,2.7-1.9,4.5-2.5    s3.6-0.9,5.7-0.9c3,0,5.7,0.4,8.2,1.3c2.5,0.9,4.8,2.2,6.9,3.8l-4.6,6.7c-1.8-1.2-3.6-2.2-5.3-2.9c-1.7-0.7-3.5-1.1-5.2-1.1    s-3,0.3-3.9,1c-0.9,0.7-1.3,1.5-1.3,2.5v0.1c0,0.7,0.1,1.2,0.4,1.7s0.7,0.9,1.4,1.3c0.7,0.4,1.6,0.8,2.7,1.1s2.6,0.8,4.3,1.2    c2,0.5,3.9,1.2,5.5,1.8c1.6,0.7,3,1.5,4.1,2.4c1.1,0.9,1.9,2.1,2.5,3.3c0.6,1.3,0.8,2.8,0.8,4.6V77    C689.6,79,689.3,80.8,688.5,82.3L688.5,82.3z"></path>			<path class="st1" d="M724.5,82.3c-0.7,1.6-1.8,2.9-3,3.9c-1.3,1.1-2.9,1.9-4.7,2.4s-3.8,0.8-6,0.8c-3.1,0-6.1-0.5-9.1-1.6    c-3-1.1-5.7-2.7-8.1-4.9l5.3-6.3c1.8,1.5,3.8,2.7,5.7,3.6c2,0.9,4.1,1.3,6.4,1.3c1.8,0,3.3-0.3,4.3-1c1-0.7,1.5-1.6,1.5-2.8v-0.1    c0-0.6-0.1-1.1-0.3-1.5s-0.6-0.9-1.2-1.2s-1.4-0.8-2.5-1.2c-1.1-0.4-2.5-0.8-4.2-1.2c-2-0.5-3.9-1.1-5.6-1.7    c-1.7-0.6-3.1-1.4-4.2-2.3s-2.1-2-2.7-3.4s-1-3-1-5v-0.1c0-1.8,0.3-3.5,1-5c0.7-1.5,1.7-2.8,2.9-3.8c1.2-1.1,2.7-1.9,4.5-2.5    s3.6-0.9,5.7-0.9c3,0,5.7,0.4,8.2,1.3c2.5,0.9,4.8,2.2,6.9,3.8l-4.6,6.7c-1.8-1.2-3.6-2.2-5.3-2.9c-1.7-0.7-3.5-1.1-5.2-1.1    s-3,0.3-3.9,1c-0.9,0.7-1.3,1.5-1.3,2.5v0.1c0,0.7,0.1,1.2,0.4,1.7s0.7,0.9,1.4,1.3c0.7,0.4,1.6,0.8,2.7,1.1s2.6,0.8,4.3,1.2    c2,0.5,3.9,1.2,5.5,1.8c1.6,0.7,3,1.5,4.1,2.4c1.1,0.9,1.9,2.1,2.5,3.3c0.6,1.3,0.8,2.8,0.8,4.6V77    C725.6,79,725.2,80.8,724.5,82.3L724.5,82.3z"></path>			<path class="st1" d="M768,76.7c-1,2.5-2.5,4.6-4.4,6.4s-4.2,3.2-6.8,4.3c-2.7,1-5.5,1.6-8.7,1.6h-15.8V48.4H748    c3.2,0,6.1,0.5,8.7,1.5c2.6,1,4.9,2.4,6.8,4.3c1.9,1.8,3.4,4,4.4,6.4s1.6,5.1,1.6,8v0.1C769.6,71.6,769,74.2,768,76.7L768,76.7z     M760.2,68.7c0-1.8-0.3-3.4-0.9-4.9c-0.6-1.5-1.4-2.8-2.5-3.9s-2.3-1.9-3.8-2.5c-1.5-0.6-3.2-0.9-5-0.9h-6.9v24.4h6.9    c1.8,0,3.5-0.3,5-0.9c1.5-0.6,2.8-1.4,3.8-2.5c1.1-1.1,1.9-2.3,2.5-3.8s0.9-3.1,0.9-4.9V68.7z"></path>		</g>		<g class="st2">			<path class="st1" d="M306.8,146.5L290,161.3l-8.8-15.5l20.7-7.6l-20.7-7.6l8.8-15.6l16.8,14.8l-4.1-22.2h17.1l-4.1,22.2    l16.8-14.8l8.8,15.6l-20.7,7.6l20.7,7.6l-8.8,15.5l-16.8-14.8l4.1,22.2h-17.1L306.8,146.5z"></path>			<path class="st1" d="M414.3,135.4h-52.9V108h87.9v24.6l-50.4,93.2H364L414.3,135.4z"></path>		</g>		<g class="st2">			<path class="st1" d="M522.8,135.4h-52.9V108h87.9v24.6l-50.4,93.2h-34.9L522.8,135.4z"></path>		</g>		<g class="st2">			<path class="st1" d="M574.2,167.2v-0.3c0-33.3,20.6-61.2,53-61.2s52.7,27.6,52.7,60.9v0.3c0,33.3-20.4,61.2-53,61.2    S574.2,200.5,574.2,167.2z M648.1,167.2v-0.3c0-18.7-8.6-32.3-21.2-32.3s-20.9,13.1-20.9,32v0.3c0,18.8,8.5,32.3,21.2,32.3    C639.9,199.2,648.1,185.9,648.1,167.2z"></path>			<path class="st1" d="M712,203h-12.7v-27.1h17.3l3.1-18.8h-15V130h19.6l3.6-22h23.7l-3.8,22h20.7l3.6-22h23.7l-3.6,22h12.7v27.1    h-17.3l-3.1,18.8h15V203H780l-3.9,22.7h-23.7l3.9-22.7h-20.7l-3.8,22.7h-23.7L712,203z M761.3,176.6l3.3-20.2h-21.7l-3.4,20.2    H761.3z"></path>		</g>		<path class="st1" d="M227.5,30h-96.8c-8.1,0-14.7,6.6-14.7,14.7v184.7c0,8.1,6.6,14.7,14.7,14.7h96.8c8.1,0,14.7-6.6,14.7-14.7   V44.7C242.2,36.6,235.6,30,227.5,30z M151.5,227.1h-15.8c-2.9,0-5.3-2.4-5.3-5.3s2.4-5.3,5.3-5.3h15.8c2.9,0,5.3,2.4,5.3,5.3   C156.8,224.8,154.5,227.1,151.5,227.1z M151.5,207h-15.8c-2.9,0-5.3-2.4-5.3-5.3s2.4-5.3,5.3-5.3h15.8c2.9,0,5.3,2.4,5.3,5.3   C156.8,204.6,154.5,207,151.5,207z M151.5,186.9h-15.8c-2.9,0-5.3-2.4-5.3-5.3s2.4-5.3,5.3-5.3h15.8c2.9,0,5.3,2.4,5.3,5.3   C156.8,184.5,154.5,186.9,151.5,186.9z M151.5,166.8h-15.8c-2.9,0-5.3-2.4-5.3-5.3s2.4-5.3,5.3-5.3h15.8c2.9,0,5.3,2.4,5.3,5.3   S154.5,166.8,151.5,166.8z M187,227.1h-15.8c-2.9,0-5.3-2.4-5.3-5.3s2.4-5.3,5.3-5.3H187c2.9,0,5.3,2.4,5.3,5.3   C192.3,224.7,189.9,227.1,187,227.1z M187,207h-15.8c-2.9,0-5.3-2.4-5.3-5.3s2.4-5.3,5.3-5.3H187c2.9,0,5.3,2.4,5.3,5.3   C192.3,204.6,189.9,207,187,207z M187,186.9h-15.8c-2.9,0-5.3-2.4-5.3-5.3s2.4-5.3,5.3-5.3H187c2.9,0,5.3,2.4,5.3,5.3   C192.3,184.5,189.9,186.9,187,186.9z M187,166.8h-15.8c-2.9,0-5.3-2.4-5.3-5.3s2.4-5.3,5.3-5.3H187c2.9,0,5.3,2.4,5.3,5.3   C192.3,164.4,189.9,166.8,187,166.8z M222.4,227.1h-15.8c-2.9,0-5.3-2.4-5.3-5.3s2.4-5.3,5.3-5.3h15.8c2.9,0,5.3,2.4,5.3,5.3   C227.7,224.7,225.3,227.1,222.4,227.1z M222.4,207h-15.8c-2.9,0-5.3-2.4-5.3-5.3s2.4-5.3,5.3-5.3h15.8c2.9,0,5.3,2.4,5.3,5.3   S225.3,207,222.4,207z M222.4,186.9h-15.8c-2.9,0-5.3-2.4-5.3-5.3s2.4-5.3,5.3-5.3h15.8c2.9,0,5.3,2.4,5.3,5.3   C227.7,184.5,225.3,186.9,222.4,186.9z M222.4,166.8h-15.8c-2.9,0-5.3-2.4-5.3-5.3s2.4-5.3,5.3-5.3h15.8c2.9,0,5.3,2.4,5.3,5.3   S225.3,166.8,222.4,166.8z M228,144.1h-97.9V47.2H228V144.1L228,144.1z"></path>	</g></g></svg>