<svg xmlns="http://www.w3.org/2000/svg" xmlns:xlink="http://www.w3.org/1999/xlink" id="Layer_2" data-name="Layer 2" viewBox="0 0 540 160"><defs><style>      .cls-1 {        fill: #fff;      }      .cls-2 {        fill: #a6a6a6;      }      .cls-3 {        fill: url(#linear-gradient);      }    </style><linearGradient id="linear-gradient" x1="-56.05" y1="359.97" x2="-56.05" y2="396.01" gradientTransform="translate(1293.83 5923.06) scale(16.02 -16.01)" gradientUnits="userSpaceOnUse"><stop offset="0" stop-color="#1a1a1a" stop-opacity=".1"></stop><stop offset=".12" stop-color="#212121" stop-opacity=".15"></stop><stop offset=".31" stop-color="#353535" stop-opacity=".23"></stop><stop offset=".53" stop-color="#575757" stop-opacity=".32"></stop><stop offset=".78" stop-color="#858585" stop-opacity=".42"></stop><stop offset="1" stop-color="#b3b3b3" stop-opacity=".51"></stop></linearGradient></defs><g id="Layer_1-2" data-name="Layer 1"><g><path class="cls-1" d="M536.42,141.11c0,8.46-6.86,15.32-15.33,15.32,0,0-.01,0-.02,0H18.93c-8.48,0-15.35-6.85-15.36-15.32V18.91c.01-8.48,6.89-15.34,15.36-15.34h502.14c8.47,0,15.34,6.87,15.34,15.34h0s0,122.21,0,122.21h0Z"></path><path class="cls-2" d="M521.07,160H18.93c-10.44,0-18.91-8.45-18.93-18.89V18.91C.02,8.47,8.48,0,18.93,0h502.14c10.44,.01,18.91,8.47,18.93,18.91v122.2c0,10.42-8.5,18.89-18.92,18.89h0Z"></path><path d="M536.42,141.11c0,8.46-6.86,15.32-15.33,15.32,0,0-.01,0-.02,0H18.93c-8.48,0-15.35-6.85-15.36-15.32V18.91c.01-8.48,6.89-15.34,15.36-15.34h502.14c8.47,0,15.34,6.87,15.34,15.34h0s0,122.21,0,122.21h0Z"></path><path class="cls-1" d="M120.58,79.16c-.12-12.9,10.56-19.17,11.05-19.46-6.05-8.81-15.42-10.02-18.71-10.11-7.87-.83-15.51,4.71-19.52,4.71s-10.27-4.63-16.92-4.49c-8.56,.13-16.58,5.09-20.97,12.79-9.07,15.7-2.31,38.76,6.38,51.45,4.35,6.22,9.43,13.15,16.07,12.91,6.5-.26,8.93-4.14,16.78-4.14s10.06,4.14,16.84,3.99c6.98-.11,11.37-6.24,15.57-12.51,5.02-7.12,7.04-14.14,7.12-14.5-.16-.06-13.55-5.17-13.69-20.62h0Zm-12.81-37.92c3.5-4.37,5.89-10.32,5.23-16.36-5.06,.22-11.39,3.5-15.04,7.78-3.23,3.77-6.11,9.95-5.36,15.76,5.69,.42,11.53-2.87,15.18-7.17Z"></path><path class="cls-3" d="M521.07,0H252.11l105.35,160h163.62c10.44,0,18.91-8.46,18.93-18.9V18.91c-.02-10.44-8.48-18.9-18.93-18.91Z"></path><path class="cls-1" d="M214.78,126.05h-9.09l-4.98-15.64h-17.31l-4.74,15.64h-8.85l17.15-53.25h10.59s17.23,53.25,17.23,53.25Zm-15.57-22.2l-4.5-13.9c-.48-1.42-1.37-4.77-2.69-10.03h-.16c-.53,2.26-1.37,5.61-2.53,10.03l-4.43,13.9h14.3Zm59.58,2.53c0,6.53-1.77,11.69-5.32,15.48-3.18,3.37-7.13,5.06-11.84,5.06-5.09,0-8.74-1.81-10.97-5.45v20.15h-8.53v-41.34c0-4.1-.11-8.31-.32-12.62h7.5l.48,6.09h.16c2.85-4.59,7.16-6.88,12.96-6.88,4.53,0,8.31,1.79,11.34,5.37,3.02,3.59,4.54,8.3,4.54,14.15Zm-8.69,.31c0-3.74-.84-6.82-2.53-9.25-1.84-2.52-4.32-3.79-7.43-3.79-2.11,0-4.02,.7-5.73,2.09-1.71,1.4-2.83,3.23-3.36,5.49-.23,.85-.37,1.72-.4,2.6v6.41c0,2.79,.86,5.15,2.57,7.07,1.71,1.92,3.94,2.88,6.68,2.88,3.21,0,5.72-1.24,7.5-3.71,1.79-2.48,2.69-5.74,2.69-9.8Zm52.86-.31c0,6.53-1.77,11.69-5.32,15.48-3.18,3.37-7.13,5.06-11.84,5.06-5.09,0-8.74-1.81-10.97-5.45v20.15h-8.53v-41.34c0-4.1-.11-8.31-.32-12.62h7.5l.48,6.09h.16c2.84-4.59,7.16-6.88,12.96-6.88,4.53,0,8.31,1.79,11.34,5.37,3.02,3.59,4.54,8.3,4.54,14.15h0Zm-8.7,.31c0-3.74-.84-6.82-2.53-9.25-1.84-2.52-4.31-3.79-7.42-3.79-2.11,0-4.02,.7-5.74,2.09-1.71,1.4-2.83,3.23-3.35,5.49-.26,1.06-.4,1.92-.4,2.6v6.41c0,2.79,.86,5.15,2.57,7.07,1.71,1.92,3.94,2.88,6.68,2.88,3.22,0,5.72-1.24,7.5-3.71,1.79-2.48,2.69-5.74,2.69-9.8Zm58.08,4.42c0,4.53-1.58,8.22-4.73,11.06-3.47,3.1-8.3,4.66-14.51,4.66-5.73,0-10.33-1.1-13.79-3.32l1.97-7.11c3.74,2.22,7.85,3.32,12.33,3.32,3.22,0,5.72-.73,7.5-2.17,1.79-1.45,2.69-3.38,2.69-5.8,0-2.16-.75-3.98-2.22-5.45-1.48-1.47-3.92-2.84-7.35-4.11-9.33-3.48-13.99-8.56-13.99-15.25,0-4.37,1.65-7.95,4.94-10.74,3.29-2.79,7.65-4.19,13.08-4.19,4.85,0,8.88,.84,12.09,2.53l-2.14,6.95c-3.02-1.63-6.42-2.45-10.23-2.45-3.01,0-5.37,.74-7.06,2.21-1.42,1.32-2.14,2.92-2.14,4.83,0,2.1,.82,3.85,2.45,5.21,1.42,1.26,4,2.63,7.74,4.11,4.59,1.85,7.96,4,10.11,6.47,2.17,2.47,3.25,5.56,3.25,9.23h0Zm28.28-17.06h-9.41v18.64c0,4.74,1.66,7.11,4.98,7.11,1.52,0,2.79-.13,3.79-.4l.24,6.48c-1.68,.63-3.89,.94-6.64,.94-3.37,0-6-1.03-7.9-3.08-1.89-2.06-2.85-5.5-2.85-10.35v-19.35h-5.6v-6.4h5.6v-7.03l8.38-2.53v9.56h9.41v6.42h0Zm42.35,12.48c0,5.9-1.69,10.75-5.06,14.54-3.53,3.9-8.22,5.85-14.06,5.85s-10.13-1.87-13.48-5.6c-3.35-3.74-5.02-8.45-5.02-14.14s1.73-10.82,5.17-14.61c3.45-3.79,8.1-5.69,13.95-5.69s10.16,1.87,13.59,5.61c3.27,3.62,4.9,8.31,4.9,14.05Zm-8.84,.2c0-3.52-.76-6.53-2.29-9.06-1.79-3.05-4.35-4.57-7.67-4.57s-6.04,1.52-7.82,4.57c-1.53,2.52-2.29,5.59-2.29,9.22s.76,6.55,2.29,9.06c1.84,3.05,4.42,4.57,7.75,4.57s5.82-1.56,7.67-4.65c1.57-2.58,2.36-5.62,2.36-9.15h0Zm36.59-11.58c-.89-.16-1.79-.24-2.69-.24-3,0-5.32,1.13-6.96,3.4-1.42,2-2.13,4.53-2.13,7.58v20.15h-8.53v-26.3c0-4.03-.08-8.06-.25-12.09h7.43l.31,7.35h.24c.9-2.52,2.32-4.56,4.27-6.09,1.78-1.33,3.94-2.05,6.17-2.06,.79,0,1.5,.06,2.13,.16v8.14s0,0,0,0Zm38.16,9.88c.02,1.3-.08,2.59-.31,3.87h-25.6c.1,3.79,1.34,6.7,3.71,8.7,2.16,1.78,4.95,2.68,8.37,2.68,3.79,0,7.25-.6,10.36-1.81l1.34,5.92c-3.63,1.58-7.92,2.37-12.87,2.37-5.96,0-10.63-1.75-14.03-5.25-3.39-3.5-5.09-8.21-5.09-14.1s1.58-10.61,4.75-14.45c3.31-4.11,7.79-6.16,13.43-6.16s9.73,2.05,12.57,6.16c2.25,3.25,3.39,7.29,3.39,12.08Zm-8.14-2.21c.06-2.53-.5-4.71-1.66-6.56-1.48-2.38-3.75-3.56-6.8-3.56-2.79,0-5.06,1.16-6.79,3.48-1.42,1.84-2.27,4.06-2.53,6.63h17.77s0,0,0,0Z"></path><path class="cls-1" d="M180.94,53.98c-2.37,0-4.43-.12-6.14-.31V27.92c2.39-.37,4.81-.55,7.22-.54,9.79,0,14.29,4.81,14.29,12.66,0,9.05-5.32,13.94-15.38,13.94Zm1.43-23.3c-1.32,0-2.45,.08-3.38,.27v19.57c.5,.08,1.47,.12,2.83,.12,6.41,0,10.06-3.65,10.06-10.48,0-6.09-3.3-9.47-9.52-9.47Zm27.99,23.49c-5.51,0-9.09-4.12-9.09-9.71s3.65-9.98,9.4-9.98c5.43,0,9.09,3.92,9.09,9.67s-3.77,10.01-9.4,10.01Zm.16-16.62c-3.03,0-4.97,2.83-4.97,6.79s1.98,6.72,4.93,6.72,4.93-3.03,4.93-6.8-1.94-6.71-4.89-6.71h0Zm40.69-2.68l-5.9,18.87h-3.85l-2.45-8.19c-.61-2-1.11-4.04-1.52-6.09h-.08c-.31,2.06-.89,4.12-1.51,6.09l-2.6,8.19h-3.89l-5.56-18.87h4.31l2.14,8.97c.5,2.14,.93,4.15,1.28,6.06h.08c.31-1.59,.81-3.57,1.55-6.02l2.68-9.01h3.42l2.57,8.81c.62,2.14,1.12,4.23,1.52,6.21h.11c.27-1.94,.7-4,1.28-6.21l2.29-8.81h4.12Zm21.73,18.87h-4.19v-10.83c0-3.34-1.28-5.01-3.81-5.01s-4.19,2.14-4.19,4.62v11.22h-4.19v-13.48c0-1.67-.04-3.46-.16-5.4h3.69l.2,2.91h.12c1.13-2.02,3.42-3.3,5.98-3.3,3.96,0,6.56,3.03,6.56,7.96v11.3s0,0,0,0Zm11.57,0h-4.2V26.22h4.2v27.53Zm15.29,.43c-5.51,0-9.09-4.12-9.09-9.71s3.65-9.98,9.4-9.98c5.44,0,9.09,3.92,9.09,9.67,0,5.9-3.77,10.01-9.4,10.01Zm.16-16.62c-3.03,0-4.97,2.83-4.97,6.79s1.99,6.72,4.93,6.72,4.93-3.03,4.93-6.8c0-3.84-1.93-6.71-4.89-6.71h0Zm25.78,16.19l-.3-2.17h-.11c-1.28,1.75-3.15,2.6-5.52,2.6-3.38,0-5.78-2.37-5.78-5.55,0-4.66,4.04-7.07,11.03-7.07v-.35c0-2.48-1.32-3.73-3.92-3.73-1.86,0-3.49,.47-4.93,1.4l-.85-2.76c1.74-1.09,3.92-1.63,6.48-1.63,4.93,0,7.42,2.6,7.42,7.81v6.95c0,1.9,.08,3.38,.27,4.51h-3.78s0,0,0,0Zm-.58-9.4c-4.66,0-7,1.13-7,3.81,0,1.98,1.2,2.95,2.88,2.95,2.13,0,4.12-1.63,4.12-3.84v-2.91Zm24.45,9.4l-.2-3.03h-.12c-1.2,2.29-3.23,3.46-6.06,3.46-4.55,0-7.92-4-7.92-9.63s3.49-10.06,8.26-10.06c2.53,0,4.31,.85,5.32,2.56h.08v-10.83h4.2v22.44c0,1.82,.04,3.53,.16,5.09h-3.73Zm-.62-11.1c0-2.64-1.75-4.89-4.42-4.89-3.11,0-5.01,2.76-5.01,6.64s1.97,6.41,4.93,6.41c2.64,0,4.5-2.29,4.5-5.01v-3.14h0Zm30.82,11.53c-5.51,0-9.08-4.12-9.08-9.71s3.65-9.98,9.4-9.98c5.44,0,9.09,3.92,9.09,9.67,0,5.9-3.76,10.01-9.4,10.01h0Zm.16-16.62c-3.03,0-4.97,2.83-4.97,6.79s1.98,6.72,4.93,6.72,4.93-3.03,4.93-6.8c0-3.84-1.93-6.71-4.89-6.71h0Zm31.8,16.19h-4.2v-10.83c0-3.34-1.28-5.01-3.81-5.01s-4.19,2.14-4.19,4.62v11.22h-4.2v-13.48c0-1.67-.04-3.46-.16-5.4h3.69l.2,2.91h.12c1.12-2.02,3.42-3.3,5.98-3.3,3.96,0,6.57,3.03,6.57,7.96v11.3Zm28.22-15.72h-4.61v9.16c0,2.33,.81,3.5,2.44,3.5,.74,0,1.36-.08,1.86-.2l.12,3.18c-.81,.31-1.9,.47-3.25,.47-3.31,0-5.28-1.82-5.28-6.6v-9.51h-2.75v-3.14h2.75v-3.46l4.12-1.24v4.7h4.61v3.15h0Zm22.2,15.72h-4.19v-10.75c0-3.38-1.28-5.09-3.81-5.09-2.17,0-4.2,1.48-4.2,4.47v11.38h-4.19V26.22h4.19v11.34h.08c1.32-2.06,3.23-3.07,5.68-3.07,3.99,0,6.44,3.1,6.44,8.04v11.22h0Zm22.75-8.43h-12.59c.08,3.57,2.45,5.59,5.95,5.59,1.86,0,3.57-.31,5.09-.89l.65,2.91c-1.78,.78-3.89,1.16-6.33,1.16-5.9,0-9.4-3.73-9.4-9.51s3.58-10.13,8.92-10.13c4.82,0,7.85,3.57,7.85,8.97,.03,.64-.02,1.27-.14,1.9h0Zm-3.85-2.99c0-2.91-1.47-4.97-4.15-4.97-2.41,0-4.31,2.1-4.59,4.97h8.74Z"></path></g></g></svg>