<svg xmlns="http://www.w3.org/2000/svg" xmlns:xlink="http://www.w3.org/1999/xlink" id="Layer_2_00000157286618480998165450000003862411171742459789_" x="0px" y="0px" viewBox="0 0 923.1 274" style="enable-background:new 0 0 923.1 274;" xml:space="preserve"><style type="text/css">	.st0{fill:#A6A6A6;}	.st1{fill-rule:evenodd;clip-rule:evenodd;fill:#FFFFFF;}	.st2{fill-rule:evenodd;clip-rule:evenodd;fill:#CFD8DC;}	.st3{fill-rule:evenodd;clip-rule:evenodd;fill:#40C351;}	.st4{fill:#FFFFFF;}	.st5{enable-background:new    ;}</style><g id="Layer_1-2">	<g>		<path d="M888.9,274H34.2C15.4,274,0,258.5,0,239.7V34.2C0,15.4,15.4,0,34.2,0h854.7c18.8,0,34.2,15.4,34.2,34.2v205.5   C923.1,258.5,907.7,273.9,888.9,274"></path>		<path class="st0" d="M888.9,0H34.2C15.4,0,0,15.4,0,34.2v205.5c0,18.8,15.4,34.2,34.2,34.2h854.7c18.8,0,34.2-15.4,34.2-34.2V34.2   C923.1,15.4,907.7,0,888.9,0 M888.9,5.5c15.8,0,28.7,12.9,28.7,28.8v205.5c0,15.9-12.9,28.8-28.7,28.8H34.2   c-15.8,0-28.7-12.9-28.7-28.8V34.2c0-15.9,12.9-28.8,28.7-28.8L888.9,5.5"></path>		<g>			<path class="st1" d="M73.6,150.2l8.8-32c-5.4-9.4-8.2-20-8.2-30.8c0-34,27.7-61.7,61.7-61.7c16.5,0,32,6.4,43.7,18.1    c11.6,11.7,18.1,27.2,18.1,43.7c0,34-27.7,61.7-61.7,61.7l0,0h0c-10.3,0-20.5-2.6-29.5-7.5L73.6,150.2L73.6,150.2z"></path>			<path class="st1" d="M73.6,151.9c-0.4,0-0.8-0.2-1.2-0.5c-0.4-0.4-0.6-1-0.4-1.6l8.6-31.3c-5.3-9.4-8.1-20.2-8.1-31.1    c0-34.9,28.4-63.3,63.3-63.3c16.9,0,32.8,6.6,44.8,18.6s18.5,27.9,18.5,44.8c0,34.9-28.4,63.3-63.3,63.3    c-10.4,0-20.6-2.6-29.7-7.4L74,151.8C73.9,151.9,73.8,151.9,73.6,151.9L73.6,151.9z"></path>			<path class="st2" d="M135.8,25.7c16.5,0,32,6.4,43.7,18.1c11.6,11.7,18.1,27.2,18.1,43.7c0,34-27.7,61.7-61.7,61.7h0    c-10.3,0-20.5-2.6-29.5-7.5l-32.7,8.6l8.8-32c-5.4-9.4-8.2-20-8.2-30.8C74.1,53.4,101.8,25.7,135.8,25.7 M135.8,22.5L135.8,22.5    c-35.8,0-64.9,29.1-65,64.9c0,10.9,2.8,21.7,8,31.3l-8.4,30.7c-0.3,1.1,0,2.3,0.8,3.1c0.6,0.6,1.4,1,2.3,1c0.3,0,0.6,0,0.8-0.1    l31.5-8.3c9.2,4.8,19.5,7.3,29.9,7.3c35.8,0,65-29.1,65-64.9c0-17.4-6.8-33.7-19-46C169.5,29.2,153.2,22.5,135.8,22.5L135.8,22.5    L135.8,22.5z"></path>			<path class="st3" d="M172.1,51.2c-9.7-9.7-22.6-15-36.3-15c-28.3,0-51.3,23-51.3,51.3c0,9.7,2.7,19.1,7.8,27.3l1.2,1.9l-5.2,18.9    l19.4-5.1l1.9,1.1c7.9,4.7,16.9,7.1,26.1,7.1h0c28.3,0,51.3-23,51.3-51.3C187.2,73.8,181.8,60.9,172.1,51.2L172.1,51.2z"></path>			<path class="st1" d="M120.4,61.6c-1.2-2.6-2.4-2.6-3.5-2.7c-0.9,0-1.9,0-2.9,0s-2.7,0.4-4.1,1.9s-5.4,5.3-5.4,12.9    s5.5,14.9,6.3,15.9s10.7,17.1,26.3,23.3c13,5.1,15.7,4.1,18.5,3.9s9.1-3.7,10.4-7.3c1.3-3.6,1.3-6.7,0.9-7.3    c-0.4-0.6-1.4-1-2.9-1.8s-9.1-4.5-10.5-5c-1.4-0.5-2.4-0.8-3.5,0.8c-1,1.5-4,5-4.9,6c-0.9,1-1.8,1.2-3.3,0.4    c-1.5-0.8-6.5-2.4-12.4-7.7c-4.6-4.1-7.7-9.1-8.6-10.7c-0.9-1.5-0.1-2.4,0.7-3.2c0.7-0.7,1.5-1.8,2.3-2.7c0.8-0.9,1-1.5,1.5-2.6    s0.3-1.9-0.1-2.7C124.8,72.3,121.8,64.7,120.4,61.6L120.4,61.6z"></path>		</g>		<g>			<path class="st4" d="M249.4,113c-1,0.8-2.1,1.4-3.2,2c-1.1,0.6-2.4,1-3.8,1.3c-1.4,0.3-2.9,0.4-4.5,0.4c-2.6,0-5-0.5-7.2-1.4    c-2.2-0.9-4.1-2.2-5.7-3.9c-1.6-1.6-2.9-3.6-3.8-5.8s-1.4-4.6-1.4-7.2s0.4-4.9,1.3-7.1c0.9-2.2,2.1-4.2,3.8-5.8    c1.6-1.7,3.5-3,5.8-3.9s4.7-1.4,7.4-1.4c1.6,0,3.1,0.1,4.4,0.4c1.3,0.3,2.6,0.7,3.7,1.1c1.1,0.5,2.1,1.1,3.1,1.7s1.8,1.4,2.7,2.2    l-4,4.6c-1.4-1.3-2.9-2.4-4.5-3.2c-1.6-0.8-3.4-1.2-5.4-1.2c-1.7,0-3.2,0.3-4.7,1c-1.4,0.7-2.7,1.6-3.7,2.7c-1,1.1-1.9,2.4-2.4,4    c-0.6,1.5-0.9,3.2-0.9,4.9s0.3,3.4,0.9,4.9s1.4,2.9,2.4,4c1,1.2,2.3,2.1,3.7,2.7c1.4,0.7,3,1,4.7,1c2.2,0,4-0.4,5.6-1.2    c1.6-0.8,3.1-1.9,4.6-3.4l4,4C251.4,111.3,250.4,112.2,249.4,113L249.4,113z"></path>			<path class="st4" d="M263.7,101.1V116h-6.2V80.7h6.2v14.7h17V80.7h6.2V116h-6.2v-14.9H263.7z"></path>			<path class="st4" d="M328.6,116H322l-3.6-8.5h-16.7l-3.6,8.5h-6.4l15.6-35.6h5.8L328.6,116L328.6,116z M310,87.8L304,102h12.2    L310,87.8z"></path>			<path class="st4" d="M343.8,116h-6.3V86.4h-11.2v-5.8H355v5.8h-11.2L343.8,116L343.8,116z"></path>			<path class="st4" d="M374.3,116V80.7h7.8V116H374.3z"></path>			<path class="st4" d="M407.8,116.3h-6.9l-14.3-35.7h8.6l9.2,24.9l9.2-24.9h8.4L407.8,116.3L407.8,116.3z"></path>			<path class="st4" d="M444.1,101.9V116h-7.8v-13.9l-13.6-21.4h9.1l8.4,14.2l8.6-14.2h8.9L444.1,101.9L444.1,101.9z"></path>			<path class="st4" d="M509.5,105.4c-0.9,2.2-2.2,4.2-3.8,5.8c-1.6,1.7-3.6,3-5.9,4s-4.8,1.5-7.5,1.5s-5.2-0.5-7.5-1.4    c-2.3-1-4.2-2.3-5.8-3.9c-1.6-1.7-2.9-3.6-3.8-5.8s-1.4-4.6-1.4-7.1s0.5-4.8,1.4-7.1c0.9-2.2,2.2-4.2,3.8-5.8s3.6-3,5.9-4    s4.8-1.5,7.5-1.5s5.2,0.5,7.5,1.4s4.2,2.3,5.8,3.9c1.6,1.7,2.9,3.6,3.8,5.8s1.4,4.6,1.4,7.1S510.5,103.1,509.5,105.4z     M503.5,93.5c-0.6-1.5-1.4-2.9-2.5-4c-1.1-1.2-2.3-2.1-3.8-2.7s-3.1-1-4.9-1s-3.4,0.3-4.8,1c-1.5,0.7-2.7,1.6-3.8,2.7    c-1,1.1-1.9,2.5-2.5,4c-0.6,1.5-0.9,3.2-0.9,4.9s0.3,3.3,0.9,4.9s1.4,2.9,2.5,4c1.1,1.2,2.3,2.1,3.8,2.7c1.5,0.7,3.1,1,4.9,1    s3.4-0.3,4.8-1c1.5-0.7,2.7-1.6,3.8-2.7c1-1.1,1.9-2.5,2.5-4c0.6-1.5,0.9-3.2,0.9-4.9S504.1,95.1,503.5,93.5z"></path>			<path class="st4" d="M541.8,80.6h6.2V116h-5.2l-19.5-25.2V116h-6.2V80.6h5.8l18.9,24.5L541.8,80.6L541.8,80.6z"></path>			<path class="st4" d="M590.9,80.5h5.3l8.7,26.3l8.4-26.2h6.5l-12.3,35.7h-5.4l-8.7-25.4l-8.7,25.4h-5.4L567,80.6h6.7l8.4,26.2    L590.9,80.5L590.9,80.5z"></path>			<path class="st4" d="M631.1,101.1V116h-6.2V80.7h6.2v14.7h17V80.7h6.2V116h-6.2v-14.9H631.1z"></path>			<path class="st4" d="M696,116h-6.6l-3.6-8.5h-16.7l-3.6,8.5H659l15.6-35.6h5.8L696,116L696,116z M677.4,87.8l-6.1,14.2h12.2    L677.4,87.8L677.4,87.8z"></path>			<path class="st4" d="M711.2,116h-6.3V86.4h-11.2v-5.8h28.7v5.8h-11.2L711.2,116L711.2,116z"></path>			<path class="st4" d="M732.5,91.7c0.2,0.5,0.7,1,1.3,1.4c0.6,0.4,1.5,0.8,2.6,1.2c1.1,0.4,2.5,0.8,4.2,1.2c1.9,0.5,3.5,1,4.9,1.6    c1.4,0.6,2.6,1.3,3.6,2.1c1,0.8,1.7,1.8,2.2,2.9c0.5,1.1,0.7,2.4,0.7,3.9c0,1.7-0.3,3.2-0.9,4.5s-1.5,2.4-2.6,3.3    c-1.1,0.9-2.4,1.6-4,2.1s-3.2,0.7-5.1,0.7c-2.7,0-5.3-0.5-7.8-1.4s-4.8-2.3-6.9-4.3l3.7-4.4c1.7,1.5,3.5,2.6,5.2,3.4    s3.7,1.2,6,1.2c1.9,0,3.5-0.4,4.6-1.2s1.7-1.9,1.7-3.3c0-0.6-0.1-1.2-0.3-1.7c-0.2-0.5-0.6-1-1.2-1.4c-0.6-0.4-1.4-0.8-2.4-1.2    c-1-0.4-2.4-0.8-4-1.2c-1.9-0.4-3.6-0.9-5-1.5s-2.7-1.2-3.7-2s-1.8-1.8-2.3-2.9c-0.5-1.2-0.8-2.5-0.8-4.2c0-1.6,0.3-3,0.9-4.2    c0.6-1.3,1.4-2.3,2.5-3.3s2.3-1.6,3.8-2.1s3.1-0.7,4.8-0.7c2.6,0,4.9,0.4,7,1.1s4,1.9,5.8,3.3l-3.3,4.7c-1.6-1.2-3.2-2.1-4.8-2.7    c-1.6-0.6-3.2-0.9-4.8-0.9c-1.8,0-3.2,0.4-4.2,1.2c-1,0.8-1.5,1.8-1.5,3C732.1,90.6,732.2,91.2,732.5,91.7L732.5,91.7z"></path>			<path class="st4" d="M791.2,116h-6.6l-3.6-8.5h-16.7l-3.6,8.5h-6.4l15.6-35.6h5.8L791.2,116L791.2,116z M772.6,87.8l-6.1,14.2    h12.2L772.6,87.8L772.6,87.8z"></path>			<path class="st4" d="M822.2,97.8c-0.7,1.5-1.8,2.8-3,3.8c-1.3,1-2.8,1.8-4.5,2.3c-1.7,0.5-3.6,0.8-5.5,0.8h-7V116H796V80.6h14    c2.1,0,3.9,0.3,5.6,0.8c1.7,0.6,3.1,1.4,4.2,2.4c1.2,1.1,2.1,2.3,2.7,3.7s0.9,3.1,0.9,4.9C823.4,94.5,823,96.2,822.2,97.8    L822.2,97.8z M815,87.8c-1.4-1.1-3.2-1.6-5.6-1.6h-7.2V99h7.2c2.4,0,4.2-0.6,5.6-1.8s2-2.7,2-4.6C817,90.5,816.4,88.9,815,87.8    L815,87.8z"></path>			<path class="st4" d="M854.8,97.8c-0.7,1.5-1.8,2.8-3,3.8c-1.3,1-2.8,1.8-4.5,2.3c-1.7,0.5-3.6,0.8-5.5,0.8h-7V116h-6.2V80.6h14    c2.1,0,3.9,0.3,5.6,0.8c1.7,0.6,3.1,1.4,4.2,2.4c1.2,1.1,2.1,2.3,2.7,3.7s0.9,3.1,0.9,4.9C855.9,94.5,855.5,96.2,854.8,97.8    L854.8,97.8z M847.5,87.8c-1.4-1.1-3.2-1.6-5.6-1.6h-7.2V99h7.2c2.4,0,4.2-0.6,5.6-1.8s2-2.7,2-4.6    C849.6,90.5,848.9,88.9,847.5,87.8L847.5,87.8z"></path>		</g>		<g class="st5">			<path class="st4" d="M62.8,196.4v-0.2c0-21.1,13.4-38.7,34.6-38.7c21.2,0,34.3,17.4,34.3,38.5v0.2c0,21.1-13.3,38.7-34.6,38.7    S62.8,217.5,62.8,196.4z M111,196.4v-0.2c0-11.8-5.6-20.4-13.8-20.4s-13.6,8.3-13.6,20.2v0.2c0,11.9,5.5,20.4,13.8,20.4    C105.6,216.6,111,208.2,111,196.4z"></path>			<path class="st4" d="M136.4,226.1l9.7-14.2c5.1,4,10,6,15.9,6c8.5,0,13.1-6,14-15.5c-3.8,3.6-9.1,6.1-15.7,6.1    c-14.5,0-25-8.9-25-23.5v-0.2c0-16.5,12.7-27.1,29.7-27.1c10.8,0,17.2,3.1,22.9,8.7c5.4,5.3,8.9,13.8,8.9,27.5v0.2    c0,24.3-12.1,40.9-34.4,40.9C151.3,234.9,143.2,231.4,136.4,226.1z M176.3,183.9v-0.2c0-5.7-4.1-10.1-10.6-10.1    c-6.5,0-10.4,4.3-10.4,10v0.2c0,5.6,4.1,9.8,10.6,9.8S176.3,189.3,176.3,183.9z"></path>		</g>		<g class="st5">			<path class="st4" d="M200.2,196.4v-0.2c0-21.1,13.4-38.7,34.6-38.7c21.2,0,34.3,17.4,34.3,38.5v0.2c0,21.1-13.3,38.7-34.6,38.7    S200.2,217.5,200.2,196.4z M248.3,196.4v-0.2c0-11.8-5.6-20.4-13.8-20.4s-13.6,8.3-13.6,20.2v0.2c0,11.9,5.5,20.4,13.8,20.4    C243,216.6,248.3,208.2,248.3,196.4z"></path>		</g>		<g class="st5">			<path class="st4" d="M267.9,221.7l13-13c5.3,5.4,11,8.5,17.8,8.5c5.8,0,9.6-3,9.6-7.5v-0.2c0-4.8-4.4-7.7-12.1-7.7h-8.7l-3-10.7    l17.1-15.4H273V159h53.8v14.8L309.1,189c10.6,2.3,19.2,8.3,19.2,20.9v0.2c0,15.1-12.1,24.8-28.7,24.8    C285.2,234.9,275.1,229.7,267.9,221.7z"></path>			<path class="st4" d="M355.2,196.4v-0.2c0-21.1,13.4-38.7,34.6-38.7c21.2,0,34.3,17.4,34.3,38.5v0.2c0,21.1-13.3,38.7-34.6,38.7    S355.2,217.5,355.2,196.4z M403.4,196.4v-0.2c0-11.8-5.6-20.4-13.8-20.4c-8.2,0-13.6,8.3-13.6,20.2v0.2    c0,11.9,5.5,20.4,13.8,20.4C398,216.6,403.4,208.2,403.4,196.4z"></path>			<path class="st4" d="M427.5,196.4v-0.2c0-21.1,13.4-38.7,34.6-38.7s34.3,17.4,34.3,38.5v0.2c0,21.1-13.3,38.7-34.6,38.7    S427.5,217.5,427.5,196.4z M475.7,196.4v-0.2c0-11.8-5.6-20.4-13.8-20.4c-8.2,0-13.6,8.3-13.6,20.2v0.2    c0,11.9,5.5,20.4,13.8,20.4S475.7,208.2,475.7,196.4z"></path>			<path class="st4" d="M499.8,196.4v-0.2c0-21.1,13.4-38.7,34.6-38.7s34.3,17.4,34.3,38.5v0.2c0,21.1-13.3,38.7-34.6,38.7    S499.8,217.5,499.8,196.4z M548,196.4v-0.2c0-11.8-5.6-20.4-13.8-20.4c-8.2,0-13.6,8.3-13.6,20.2v0.2c0,11.9,5.5,20.4,13.8,20.4    S548,208.2,548,196.4z"></path>		</g>		<g class="st5">			<path class="st4" d="M596.2,196.4v-0.2c0-21.1,13.4-38.7,34.6-38.7c21.2,0,34.3,17.4,34.3,38.5v0.2c0,21.1-13.3,38.7-34.6,38.7    S596.2,217.5,596.2,196.4z M644.4,196.4v-0.2c0-11.8-5.6-20.4-13.8-20.4c-8.2,0-13.6,8.3-13.6,20.2v0.2    c0,11.9,5.5,20.4,13.8,20.4C639.1,216.6,644.4,208.2,644.4,196.4z"></path>		</g>		<g class="st5">			<path class="st4" d="M664,221.7l13-13c5.3,5.4,11,8.5,17.8,8.5c5.8,0,9.6-3,9.6-7.5v-0.2c0-4.8-4.4-7.7-12.1-7.7h-8.7l-3-10.7    l17.1-15.4h-28.5V159h53.8v14.8L705.1,189c10.6,2.3,19.2,8.3,19.2,20.9v0.2c0,15.1-12.1,24.8-28.7,24.8    C681.3,234.9,671.2,229.7,664,221.7z"></path>		</g>		<g class="st5">			<path class="st4" d="M727.1,196.4v-0.2c0-21.1,13.4-38.7,34.6-38.7c21.2,0,34.3,17.4,34.3,38.5v0.2c0,21.1-13.3,38.7-34.6,38.7    S727.1,217.5,727.1,196.4z M775.3,196.4v-0.2c0-11.8-5.6-20.4-13.8-20.4s-13.6,8.3-13.6,20.2v0.2c0,11.9,5.5,20.4,13.8,20.4    C770,216.6,775.3,208.2,775.3,196.4z"></path>		</g>		<g class="st5">			<path class="st4" d="M797.5,217.9l27.9-21.3c6.9-5.4,9.6-8.9,9.6-13.4c0-4.7-3.3-7.5-8.3-7.5s-8.9,2.9-14.8,9.6L798,173.6    c8-10.3,15.8-15.9,30.3-15.9c16.3,0,27.4,9.7,27.4,23.7v0.2c0,11.9-6.2,18.1-17.2,26l-12.8,8.9h30.7v16.8h-58.9V217.9z"></path>		</g>	</g></g></svg>