<svg xmlns="http://www.w3.org/2000/svg" width="10" height="13" viewBox="0 0 10 13" fill="none"><path fill-rule="evenodd" clip-rule="evenodd" d="M5.36598 12.5656L9.36599 8.5656C9.67879 8.2528 9.67879 7.7472 9.36599 7.4344C9.05319 7.1216 8.54759 7.1216 8.23479 7.4344L5.60039 10.0688L5.60039 0.8C5.60039 0.3576 5.24199 -1.9052e-07 4.80039 -2.09823e-07C4.35879 -2.29126e-07 4.00039 0.3576 4.00039 0.8L4.00039 10.0688L1.36598 7.4344C1.05318 7.1216 0.547585 7.1216 0.234785 7.4344C0.0787847 7.5904 0.000384944 7.7952 0.000384935 8C0.000384926 8.2048 0.0787847 8.4096 0.234785 8.5656L4.23479 12.5656C4.54759 12.8784 5.05318 12.8784 5.36598 12.5656" fill="#C31162"></path></svg>